<?xml version="1.0" standalone="no"?>
<!DOCTYPE svg PUBLIC "-//W3C//DTD SVG 20010904//EN"
 "http://www.w3.org/TR/2001/REC-SVG-20010904/DTD/svg10.dtd">
<svg version="1.0" xmlns="http://www.w3.org/2000/svg"
 width="426.000000pt" height="426.000000pt" viewBox="0 0 426.000000 426.000000"
 preserveAspectRatio="xMidYMid meet">
<metadata>
Created by potrace 1.11, written by Peter Selinger 2001-2013
</metadata>
<g transform="translate(0.000000,426.000000) scale(0.100000,-0.100000)"
fill="#000000" stroke="none">
<path d="M1394 3591 c-25 -12 -50 -33 -65 -57 l-24 -39 -3 -597 -3 -598 -590
0 c-567 0 -591 -1 -628 -20 -22 -11 -49 -35 -60 -54 -21 -34 -21 -35 -19 -759
l3 -726 30 -32 c59 -63 -32 -59 1442 -59 1293 0 1350 1 1389 19 25 12 50 33
65 57 l24 39 3 598 3 597 590 0 c567 0 591 1 628 20 22 11 49 35 60 54 21 34
21 35 19 757 -3 706 -3 725 -23 751 -11 15 -38 37 -61 48 -40 20 -57 20 -1390
20 -1294 0 -1351 -1 -1390 -19z m1216 -806 l0 -485 -480 0 -480 0 0 485 0 485
480 0 480 0 0 -485z m1310 0 l0 -485 -480 0 -480 0 0 485 0 485 480 0 480 0 0
-485z m-2620 -1310 l0 -485 -480 0 -480 0 0 485 0 485 480 0 480 0 0 -485z
m1310 0 l0 -485 -480 0 -480 0 0 485 0 485 480 0 480 0 0 -485z"/>
</g>
</svg>
